<svg width="51" height="51" viewBox="0 0 51 51" fill="none" xmlns="http://www.w3.org/2000/svg">
<rect x="0.769531" y="0.5" width="50" height="50" rx="25" fill="#FF640B" fill-opacity="0.1" style="fill:#FF640B;fill:color(display-p3 1.0000 0.3922 0.0431);fill-opacity:0.1;"/>
<rect x="1.53876" y="1.26923" width="48.4615" height="48.4615" rx="24.2308" stroke="#FF640B" stroke-opacity="0.1" style="stroke:#FF640B;stroke:color(display-p3 1.0000 0.3922 0.0431);stroke-opacity:0.1;" stroke-width="1.53846"/>
<g clip-path="url(#clip0_184_25800)">
<path d="M17.436 27.583H25.1444V35.4997H18.8944C18.0944 35.4997 17.436 34.8413 17.436 34.0413V27.583Z" fill="url(#paint0_linear_184_25800)" style=""/>
<path d="M34.1029 27.5835V34.0418C34.1029 34.8418 33.4445 35.5002 32.6445 35.5002H26.3945V27.5835H34.1029Z" fill="url(#paint1_linear_184_25800)" style=""/>
<path d="M15.7695 22.7918V24.8752C15.7695 25.6752 16.4279 26.3335 17.2279 26.3335H17.4362H25.1445V25.0835V21.3335H17.2279C16.4279 21.3335 15.7695 21.9918 15.7695 22.7918Z" fill="url(#paint2_linear_184_25800)" style=""/>
<path d="M34.3112 21.3335H26.3945V25.0835V26.3335H34.1029H34.3112C35.1112 26.3335 35.7695 25.6752 35.7695 24.8752V22.7918C35.7695 21.9918 35.1112 21.3335 34.3112 21.3335Z" fill="url(#paint3_linear_184_25800)" style=""/>
<path d="M25.7693 22.2032C25.5876 22.2032 25.4143 22.1241 25.2968 21.9866C25.1776 21.8491 25.1251 21.6666 25.151 21.4866C25.4593 19.4032 27.0868 15.4624 31.0435 15.4624C33.3018 15.4632 34.1026 16.6832 34.1026 17.7282C34.1026 19.5857 31.5168 22.2032 25.7693 22.2032ZM31.0435 16.7132C28.0585 16.7132 26.9251 19.5507 26.5493 20.9349C28.9043 20.8249 30.3893 20.2291 31.2443 19.7216C32.4301 19.0174 32.8526 18.2299 32.8526 17.7274C32.8526 16.9791 31.9185 16.7132 31.0435 16.7132Z" fill="url(#paint4_linear_184_25800)" style=""/>
<path d="M25.7699 22.2034C20.0224 22.2034 17.4365 19.5859 17.4365 17.7284C17.4365 16.6834 18.2382 15.4634 20.4965 15.4634C24.4524 15.4634 26.0799 19.4042 26.3882 21.4875C26.414 21.6675 26.3615 21.85 26.2424 21.9875C26.1249 22.1242 25.9515 22.2034 25.7699 22.2034ZM20.4965 16.7134C19.6215 16.7134 18.6865 16.98 18.6865 17.7284C18.6865 18.7925 20.5474 20.7317 24.989 20.9359C24.614 19.5509 23.4807 16.7134 20.4965 16.7134Z" fill="url(#paint5_linear_184_25800)" style=""/>
</g>
<defs>
<linearGradient id="paint0_linear_184_25800" x1="17.436" y1="35.4997" x2="26.0375" y2="34.3673" gradientUnits="userSpaceOnUse">
<stop offset="0.108" stop-color="#F7A200" style="stop-color:#F7A200;stop-color:color(display-p3 0.9686 0.6353 0.0000);stop-opacity:1;"/>
<stop offset="0.943" stop-color="#FF610C" style="stop-color:#FF610C;stop-color:color(display-p3 1.0000 0.3804 0.0471);stop-opacity:1;"/>
</linearGradient>
<linearGradient id="paint1_linear_184_25800" x1="26.3945" y1="35.5002" x2="34.996" y2="34.3678" gradientUnits="userSpaceOnUse">
<stop offset="0.108" stop-color="#F7A200" style="stop-color:#F7A200;stop-color:color(display-p3 0.9686 0.6353 0.0000);stop-opacity:1;"/>
<stop offset="0.943" stop-color="#FF610C" style="stop-color:#FF610C;stop-color:color(display-p3 1.0000 0.3804 0.0471);stop-opacity:1;"/>
</linearGradient>
<linearGradient id="paint2_linear_184_25800" x1="15.7695" y1="26.3335" x2="25.7694" y2="23.7984" gradientUnits="userSpaceOnUse">
<stop offset="0.108" stop-color="#F7A200" style="stop-color:#F7A200;stop-color:color(display-p3 0.9686 0.6353 0.0000);stop-opacity:1;"/>
<stop offset="0.943" stop-color="#FF610C" style="stop-color:#FF610C;stop-color:color(display-p3 1.0000 0.3804 0.0471);stop-opacity:1;"/>
</linearGradient>
<linearGradient id="paint3_linear_184_25800" x1="26.3945" y1="26.3335" x2="36.3944" y2="23.7984" gradientUnits="userSpaceOnUse">
<stop offset="0.108" stop-color="#F7A200" style="stop-color:#F7A200;stop-color:color(display-p3 0.9686 0.6353 0.0000);stop-opacity:1;"/>
<stop offset="0.943" stop-color="#FF610C" style="stop-color:#FF610C;stop-color:color(display-p3 1.0000 0.3804 0.0471);stop-opacity:1;"/>
</linearGradient>
<linearGradient id="paint4_linear_184_25800" x1="25.1445" y1="22.2032" x2="34.9958" y2="20.4332" gradientUnits="userSpaceOnUse">
<stop offset="0.108" stop-color="#F7A200" style="stop-color:#F7A200;stop-color:color(display-p3 0.9686 0.6353 0.0000);stop-opacity:1;"/>
<stop offset="0.943" stop-color="#FF610C" style="stop-color:#FF610C;stop-color:color(display-p3 1.0000 0.3804 0.0471);stop-opacity:1;"/>
</linearGradient>
<linearGradient id="paint5_linear_184_25800" x1="17.4365" y1="22.2034" x2="27.2877" y2="20.4331" gradientUnits="userSpaceOnUse">
<stop offset="0.108" stop-color="#F7A200" style="stop-color:#F7A200;stop-color:color(display-p3 0.9686 0.6353 0.0000);stop-opacity:1;"/>
<stop offset="0.943" stop-color="#FF610C" style="stop-color:#FF610C;stop-color:color(display-p3 1.0000 0.3804 0.0471);stop-opacity:1;"/>
</linearGradient>
<clipPath id="clip0_184_25800">
<rect width="20" height="20" fill="white" style="fill:white;fill-opacity:1;" transform="translate(15.7695 15.5)"/>
</clipPath>
</defs>
</svg>
