<svg width="528" height="410" viewBox="0 0 528 410" fill="none" xmlns="http://www.w3.org/2000/svg">
<g clip-path="url(#clip0_238_1383)">
<path d="M137.575 399.667C137.575 405.372 106.89 410 69.0357 410C31.1812 410 0.5 405.372 0.5 399.667C0.5 393.961 31.1849 389.333 69.0357 389.333C106.887 389.333 137.575 393.961 137.575 399.667Z" fill="#F7F5FF" style="fill:#F7F5FF;fill:color(display-p3 0.9686 0.9608 1.0000);fill-opacity:1;"/>
<path d="M527.5 399.667C527.5 405.372 493.953 410 452.57 410C411.187 410 377.645 405.372 377.645 399.667C377.645 393.961 411.191 389.333 452.57 389.333C493.95 389.333 527.5 393.961 527.5 399.667Z" fill="#F7F5FF" style="fill:#F7F5FF;fill:color(display-p3 0.9686 0.9608 1.0000);fill-opacity:1;"/>
<path d="M52.639 254.194C52.639 272.261 40.5818 287.556 24.0806 292.422C19.9552 286.899 16.4685 280.935 13.7183 274.674C24.599 274.216 33.308 265.221 33.308 254.194C33.308 243.166 24.121 233.693 12.8211 233.693C10.6494 233.693 8.57695 234.033 6.60254 234.65C7.0413 227.81 8.23746 221.031 10.1702 214.449C11.0465 214.369 11.924 214.35 12.8211 214.35C34.7823 214.35 52.639 232.218 52.639 254.194Z" fill="#E9E7FF" style="fill:#E9E7FF;fill:color(display-p3 0.9137 0.9059 1.0000);fill-opacity:1;"/>
<path d="M72.671 30.7966C84.4304 16.8796 99.8764 5.50731 117.635 1.47128C135.394 -2.56475 155.506 1.65033 168.209 14.6991C180.923 27.7527 184.206 49.9478 173.573 64.7368C165.91 75.3818 153.102 80.6945 141.556 86.9C133.946 90.9888 126.219 96.1065 121.167 103.264C116.831 109.435 117.62 116.17 111.241 120.545C99.798 128.38 82.9842 127.287 71.7775 119.654C57.9615 110.249 51.2625 92.4874 52.4746 75.8074C53.6867 59.1285 61.8785 43.578 72.6697 30.7966H72.671Z" fill="#FFF0E7" style="fill:#FFF0E7;fill:color(display-p3 1.0000 0.9412 0.9059);fill-opacity:1;"/>
<path d="M463.791 203.86C469.49 203.86 474.891 205.057 479.794 207.23C478.677 213.812 477.183 220.353 475.309 226.774C472.021 224.521 468.055 223.224 463.791 223.224C452.472 223.224 443.305 232.397 443.305 243.724C443.305 253.774 450.52 262.131 460.046 263.866C456.857 269.748 453.349 275.452 449.544 280.935C434.597 275.192 423.955 260.675 423.955 243.724C423.955 221.748 441.831 203.859 463.794 203.859L463.791 203.86Z" fill="#E9E7FF" style="fill:#E9E7FF;fill:color(display-p3 0.9137 0.9059 1.0000);fill-opacity:1;"/>
<path d="M397.808 26.0883C396.173 25.1452 394.51 24.2316 392.827 23.3461C389.049 21.3545 385.174 19.5456 381.231 17.9194C376.51 19.7381 373.145 24.3272 373.145 29.6866C373.145 36.6426 378.798 42.2913 385.741 42.2913C392.684 42.2913 398.338 36.6438 398.338 29.6866C398.338 28.4356 398.155 27.2227 397.809 26.0883H397.808ZM385.741 38.4429C380.915 38.4429 377 34.5271 377 29.6878C377 24.8485 380.914 20.9412 385.741 20.9412C390.569 20.9412 394.492 24.857 394.492 29.6878C394.492 34.5185 390.579 38.4429 385.741 38.4429ZM483.183 170.078C481.078 113.483 450.683 58.514 402.029 28.6C402.059 28.9556 402.067 29.3211 402.067 29.6878C402.067 38.7029 394.749 46.0257 385.74 46.0257C376.731 46.0257 369.423 38.7029 369.423 29.6878C369.423 24.0403 372.298 19.0464 376.673 16.1215C342.865 3.45909 304.355 3.53635 270.125 15.1882C273.615 21.8083 275.586 29.3517 275.586 37.3465C275.586 63.7298 254.143 85.1854 227.778 85.1854C214.682 85.1854 202.788 79.8837 194.153 71.3297C179.981 88.1385 166.336 105.41 148.038 117.572C115.971 138.894 73.5279 141.876 43.0379 165.335C29.9034 175.447 19.9419 189.186 13.9414 204.437C40.2203 204.494 61.6055 225.931 61.6055 252.257C61.6055 272.799 48.6156 290.35 30.4414 297.103C40.941 308.91 54.3746 318.203 69.3843 323.515H212.971C215.914 299.643 236.25 281.16 260.895 281.16C285.54 281.16 305.886 299.643 308.827 323.515H406.837C421.702 312.941 434.799 300.058 445.731 285.624C428.818 278.283 416.981 261.397 416.981 241.787C416.981 215.404 438.424 193.949 464.789 193.949C470.865 193.949 476.663 195.084 482.009 197.181C483.105 188.204 483.519 179.131 483.182 170.077L483.183 170.078Z" fill="#FF640B" fill-opacity="0.1" style="fill:#FF640B;fill:color(display-p3 1.0000 0.3922 0.0431);fill-opacity:0.1;"/>
<path d="M376.525 78.6248H412.454C415.31 78.6248 417.625 80.9414 417.625 83.7989V105.622C417.625 108.48 415.31 110.797 412.454 110.797H381.399C380.715 110.797 380.059 111.069 379.574 111.553L372.149 118.984C371.856 119.277 371.354 119.07 371.354 118.654V83.7977C371.354 80.9402 373.67 78.6235 376.525 78.6235V78.6248Z" fill="#FFC800" style="fill:#FFC800;fill:color(display-p3 1.0000 0.7860 0.0000);fill-opacity:1;"/>
<path d="M409.844 84.894H405.573V104.522H409.844V84.894Z" fill="white" style="fill:white;fill-opacity:1;"/>
<path d="M400.943 90.9487H396.39V104.522H400.943V90.9487Z" fill="white" style="fill:white;fill-opacity:1;"/>
<path d="M391.907 95.6152H387.818V104.522H391.907V95.6152Z" fill="white" style="fill:white;fill-opacity:1;"/>
<path d="M383.539 100.063H379.399V104.522H383.539V100.063Z" fill="white" style="fill:white;fill-opacity:1;"/>
<path d="M260.893 272.28C231.393 272.28 207.037 294.766 204.047 323.516H207.912C210.883 296.893 233.509 276.129 260.893 276.129C288.277 276.129 310.913 296.893 313.883 323.516H317.749C314.759 294.766 290.403 272.28 260.893 272.28Z" fill="white" style="fill:white;fill-opacity:1;"/>
<path d="M339.99 36.2027V309.507C339.99 317.569 333.435 324.104 325.38 324.104H196.394C188.339 324.104 181.808 317.569 181.808 309.507V36.2027C181.808 28.1184 188.339 21.583 196.394 21.583H325.38C333.435 21.583 339.99 28.1184 339.99 36.2027Z" fill="#FF640B" style="fill:#FF640B;fill:color(display-p3 1.0000 0.3922 0.0431);fill-opacity:1;"/>
<path d="M335.438 45.1294V300.582C335.438 306.115 330.933 310.625 325.38 310.625H196.395C190.865 310.625 186.358 306.115 186.358 300.582V45.1294C186.358 39.5726 190.865 35.0645 196.395 35.0645H325.38C330.933 35.0645 335.438 39.5726 335.438 45.1294Z" fill="#FFAA98" style="fill:#FFAA98;fill:color(display-p3 1.0000 0.6686 0.5958);fill-opacity:1;"/>
<g opacity="0.25">
<path d="M224.458 163.807C223.939 163.484 224.218 161.904 225.753 159.272C227.235 157.173 228.817 155.146 230.493 153.199C232.672 151.072 234.137 150.421 234.585 150.856C235.049 151.308 234.398 152.711 232.697 155.098C231.082 156.976 229.556 158.931 228.127 160.953C226.224 163.185 225.02 164.158 224.458 163.807Z" fill="#FF640B" style="fill:#FF640B;fill:color(display-p3 1.0000 0.3922 0.0431);fill-opacity:1;"/>
</g>
<g opacity="0.25">
<path d="M299.778 161.437C299.228 161.762 298.053 160.76 296.145 158.569C294.695 156.584 293.088 154.715 291.344 152.985C289.466 150.773 288.652 149.459 289.064 148.954C289.452 148.473 291.005 148.951 293.394 150.92C295.245 152.757 296.95 154.742 298.491 156.847C300.081 159.507 300.323 161.116 299.778 161.436V161.437Z" fill="#FF640B" style="fill:#FF640B;fill:color(display-p3 1.0000 0.3922 0.0431);fill-opacity:1;"/>
</g>
<g opacity="0.25">
<path d="M319.608 132.059C319.367 132.631 317.918 132.627 315.33 131.814L309.008 129.142C306.623 127.854 305.611 126.817 305.859 126.23C306.106 125.644 307.549 125.661 310.14 126.46L316.461 129.133C318.842 130.436 319.861 131.459 319.607 132.059H319.608Z" fill="#FF640B" style="fill:#FF640B;fill:color(display-p3 1.0000 0.3922 0.0431);fill-opacity:1;"/>
</g>
<g opacity="0.25">
<path d="M322.347 91.098C322.508 91.6989 321.232 92.6224 318.423 93.644L311.116 95.6074C308.177 96.1311 306.609 95.9704 306.444 95.356C306.278 94.7428 307.559 93.8328 310.361 92.7978L317.668 90.8343C320.614 90.3241 322.177 90.4689 322.346 91.0992L322.347 91.098Z" fill="#FF640B" style="fill:#FF640B;fill:color(display-p3 1.0000 0.3922 0.0431);fill-opacity:1;"/>
</g>
<g opacity="0.25">
<path d="M294.305 61.3107C294.864 61.5621 294.927 62.851 294.086 65.0585C293.176 66.8245 292.19 68.55 291.133 70.2314C289.662 72.0771 288.52 72.6768 288.007 72.3138C287.481 71.9434 287.704 70.7244 288.67 68.6813C289.683 67.071 290.628 65.4154 291.5 63.7242C292.767 61.8515 293.703 61.0397 294.304 61.3107H294.305Z" fill="#FF640B" style="fill:#FF640B;fill:color(display-p3 1.0000 0.3922 0.0431);fill-opacity:1;"/>
</g>
<g opacity="0.25">
<path d="M256.32 63.3242C255.741 63.0495 255.781 61.8231 256.157 59.661C256.678 57.8827 256.972 56.0358 257.03 54.1827C257.342 52.0133 257.687 50.8347 258.339 50.7513C258.946 50.6691 259.724 51.7815 259.937 54.2759C259.872 56.3743 259.54 58.4616 258.95 60.4753C257.972 62.7821 256.885 63.5989 256.322 63.3242H256.32Z" fill="#FF640B" style="fill:#FF640B;fill:color(display-p3 1.0000 0.3922 0.0431);fill-opacity:1;"/>
</g>
<g opacity="0.25">
<path d="M229.867 74.2427C229.335 74.5959 228.21 73.8037 226.39 72.0413C225.003 70.409 223.462 68.9092 221.791 67.5687C219.981 65.8003 219.159 64.6965 219.506 64.141C219.829 63.6161 221.29 63.8037 223.614 65.3011C225.426 66.7556 227.099 68.383 228.603 70.1552C230.166 72.4399 230.394 73.8956 229.865 74.2439L229.867 74.2427Z" fill="#FF640B" style="fill:#FF640B;fill:color(display-p3 1.0000 0.3922 0.0431);fill-opacity:1;"/>
</g>
<g opacity="0.25">
<path d="M211.482 99.8156C211.157 100.345 209.941 100.294 207.952 99.4464L203.226 96.73C201.494 95.4374 200.838 94.4121 201.139 93.8517C201.441 93.29 202.627 93.3439 204.644 94.1877L209.434 96.9409C211.18 98.2593 211.824 99.2588 211.483 99.8143L211.482 99.8156Z" fill="#FF640B" style="fill:#FF640B;fill:color(display-p3 1.0000 0.3922 0.0431);fill-opacity:1;"/>
</g>
<g opacity="0.25">
<path d="M215.819 128.259C216.195 128.729 215.614 129.991 213.58 131.554C211.744 132.68 209.799 133.626 207.779 134.374C205.295 135.004 203.945 134.68 203.806 134.079C203.654 133.443 204.689 132.695 206.767 131.644C208.61 130.962 210.387 130.097 212.064 129.071C214.175 128.085 215.403 127.734 215.819 128.259Z" fill="#FF640B" style="fill:#FF640B;fill:color(display-p3 1.0000 0.3922 0.0431);fill-opacity:1;"/>
</g>
<path opacity="0.25" d="M285.374 142.57C281.356 146.418 278.423 151.259 277.076 156.56L250.009 157.744L276.817 156.58C278.385 156.512 279.75 157.763 279.818 159.332V159.457C279.818 160.968 278.597 162.267 277.067 162.334L275.49 162.401L275.644 165.807L277.212 165.74C278.789 165.672 280.155 166.923 280.222 168.492V168.617C280.222 170.128 279.001 171.426 277.462 171.494L274.251 171.639C272.674 175.94 268.588 179.288 263.664 179.51C258.741 179.722 254.376 176.738 252.433 172.582L249.222 172.726C247.655 172.794 246.289 171.543 246.222 169.974V169.849C246.222 168.338 247.443 167.04 248.972 166.972L250.549 166.905L250.395 163.499L248.818 163.567C247.25 163.634 245.885 162.383 245.817 160.815V160.689C245.817 159.179 247.038 157.88 248.568 157.812H248.577C246.78 152.646 243.434 148.065 238.828 144.592C235.415 141.985 232.502 138.78 230.222 135.134C226.886 129.785 224.904 123.482 224.771 116.622C224.492 98.0237 238.973 81.6661 257.511 80.0694C268.857 79.011 279.271 83.2543 286.568 90.6249C292.684 96.8218 296.597 105.221 297 114.534C297.481 125.531 292.942 135.692 285.376 142.572L285.374 142.57Z" fill="#FF640B" style="fill:#FF640B;fill:color(display-p3 1.0000 0.3922 0.0431);fill-opacity:1;"/>
<path opacity="0.25" d="M335.726 218.601H246.104C242.118 218.601 238.886 221.835 238.886 225.824V244.983C238.886 248.972 242.118 252.206 246.104 252.206H335.726V218.601Z" fill="#352171" style="fill:#352171;fill:color(display-p3 0.2078 0.1294 0.4431);fill-opacity:1;"/>
<path opacity="0.25" d="M297.648 269.368H185.845V302.973H297.648C301.635 302.973 304.867 299.739 304.867 295.75V276.591C304.867 272.602 301.635 269.368 297.648 269.368Z" fill="#352171" style="fill:#352171;fill:color(display-p3 0.2078 0.1294 0.4431);fill-opacity:1;"/>
<path d="M71.9231 386.74V400.126C71.9231 400.945 72.5812 401.602 73.3987 401.602H105.031C105.866 401.602 106.538 400.912 106.507 400.078C106.459 398.874 106.33 395.824 105.913 395.488C99.2082 390.062 92.8401 391.683 91.9895 389.131C91.139 386.579 90.802 383.738 90.802 383.738C90.802 383.738 73.0445 383.481 71.9219 386.74H71.9231Z" fill="#0A163C" style="fill:#0A163C;fill:color(display-p3 0.0392 0.0863 0.2353);fill-opacity:1;"/>
<path d="M22.2835 386.74V400.126C22.2835 400.945 22.9416 401.602 23.7591 401.602H55.3913C56.2259 401.602 56.8988 400.912 56.8669 400.078C56.8191 398.874 56.6904 395.824 56.2737 395.488C49.5686 390.062 43.2005 391.683 42.3499 389.131C41.4993 386.579 41.1623 383.738 41.1623 383.738C41.1623 383.738 23.4049 383.481 22.2822 386.74H22.2835Z" fill="#0A163C" style="fill:#0A163C;fill:color(display-p3 0.0392 0.0863 0.2353);fill-opacity:1;"/>
<path d="M105.677 306.1C105.578 322.149 101.625 382.709 99.8526 384.708C96.9259 388.002 86.1506 388.058 77.4698 387.031C70.9142 386.257 65.5547 384.877 65.6527 383.821C65.6527 383.821 69.8307 326.823 69.1273 311.337C68.7473 302.876 66.3844 272.68 65.9052 266.572C65.8488 265.868 65.8206 265.487 65.8206 265.487C65.8206 265.487 60.6009 305.974 58.4488 319.418C55.7623 336.268 49.7128 386.635 48.1649 387.944C45.4919 390.197 30.8609 390.915 22.0122 388.775C19.0304 388.043 16.6944 386.987 15.7103 385.565C14.2335 383.44 21.6605 335.621 22.4914 316.997C23.3358 297.865 25.8961 245.526 36.6996 223.875L99.7386 228.21C99.7386 228.21 100.119 231.8 100.681 237.501C102.383 254.69 105.788 291.066 105.675 306.1H105.677Z" fill="#262626" style="fill:#262626;fill:color(display-p3 0.1500 0.1500 0.1500);fill-opacity:1;"/>
<path d="M75.8238 373.559C75.6547 378.106 76.0064 382.752 77.4698 387.031C70.9141 386.257 65.5546 384.877 65.6527 383.821C65.6527 383.821 69.8307 326.822 69.1272 311.337C68.7473 302.876 66.3844 272.68 65.9052 266.571C66.2422 265.643 66.7631 264.953 67.5229 264.728C71.6593 263.475 71.5882 275.625 71.8002 277.637C72.4755 284.253 73.1643 290.855 73.8543 297.473C74.6276 304.906 75.4022 312.339 76.1608 319.757C77.4269 331.878 78.6794 344.083 77.596 356.204C77.0898 362.004 76.0346 367.748 75.8238 373.561V373.559Z" fill="#262040" style="fill:#262040;fill:color(display-p3 0.1490 0.1255 0.2510);fill-opacity:1;"/>
<path d="M155.632 131.713L160.697 145.871C162.74 150.392 169.177 145.784 172.781 138.265C174.244 135.215 174.04 131.524 171.895 128.91C169.384 125.85 165.975 125.98 165.975 125.98C165.975 125.98 169.775 115.145 166.745 114.001C163.718 112.866 160.067 125.081 160.067 125.081C160.067 125.081 159.316 121.668 157.487 120.801C155.651 119.949 155.632 131.715 155.632 131.715V131.713Z" fill="#FFADAF" style="fill:#FFADAF;fill:color(display-p3 1.0000 0.6784 0.6863);fill-opacity:1;"/>
<path d="M168.115 145.828C168.115 145.828 153.923 189.905 135.26 199.536C134.673 199.834 134.087 200.104 133.49 200.334C133.019 200.527 132.538 200.68 132.047 200.815C130.519 201.228 129.027 201.546 127.567 201.778C106.931 205.116 93.1143 192.33 93.1143 192.33L93.1523 150.793V143.355C95.9123 143.75 100.479 146.078 105.922 149.138C106.739 149.6 107.585 150.081 108.45 150.571C109.613 151.235 110.806 151.928 112.027 152.63C117.96 156.056 124.402 159.769 130.383 162.521L155.181 131.096C158.624 130.316 167.893 142.681 168.114 145.828H168.115Z" fill="#FF640B" style="fill:#FF640B;fill:color(display-p3 1.0000 0.3922 0.0431);fill-opacity:1;"/>
<path d="M99.5135 199.333C98.669 202.169 98.7499 205.76 99.2021 209.401C100.076 216.532 102.418 223.875 102.298 226.248C101.564 240.661 58.0729 244.382 38.7148 241.284C37.9807 241.163 37.2772 241.042 36.6142 240.901C32.533 240.066 29.9102 238.849 29.6185 237.32C29.6087 237.281 29.5989 237.24 29.5989 237.189C26.975 223.339 33.9914 167.308 44.2336 148.58C44.4542 148.168 44.6858 147.766 44.9175 147.394C52.6472 134.681 105.948 129.41 108.893 154.012C109.656 160.428 105.627 177.104 102.56 188.52C101.173 193.679 99.9767 197.763 99.5147 199.331L99.5135 199.333Z" fill="#FF640B" style="fill:#FF640B;fill:color(display-p3 1.0000 0.3922 0.0431);fill-opacity:1;"/>
<path d="M123.324 194.15C119.579 202.669 128.127 195.707 131.713 193.487C131.778 193.275 132.679 190.376 131.262 189.318C129.8 188.213 123.323 194.151 123.323 194.151L123.324 194.15Z" fill="#FFADAF" style="fill:#FFADAF;fill:color(display-p3 1.0000 0.6784 0.6863);fill-opacity:1;"/>
<path d="M127.852 210.643H142.391C143.777 210.643 144.992 209.715 145.357 208.377L151.969 184.119C152.502 182.163 151.03 180.234 149.003 180.234H134.464C133.078 180.234 131.864 181.162 131.498 182.5L124.886 206.758C124.353 208.714 125.825 210.643 127.852 210.643Z" fill="#2C2C76" style="fill:#2C2C76;fill:color(display-p3 0.1725 0.1725 0.4627);fill-opacity:1;"/>
<path d="M122.579 204.851C122.579 204.851 138.852 208.177 140.533 196.909C142.186 185.846 127.899 193.677 127.517 193.953L123.299 194.286L122.579 204.851Z" fill="#FFADAF" style="fill:#FFADAF;fill:color(display-p3 1.0000 0.6784 0.6863);fill-opacity:1;"/>
<path d="M46.8784 145.019C31.9312 156.976 33.8811 210.954 60.4762 221.398C78.98 228.664 121.696 209.38 121.696 209.38C122.804 209.47 124.22 192.026 123.112 191.935L78.0633 190.856C78.0633 190.856 68.0295 128.097 46.8784 145.019Z" fill="#FF640B" style="fill:#FF640B;fill:color(display-p3 1.0000 0.3922 0.0431);fill-opacity:1;"/>
<path d="M74.7085 129.544C74.7085 129.544 77.5629 132.572 81.3254 133.893C83.0584 134.495 84.9789 134.738 86.9006 134.153C90.4646 133.066 90.5908 123.533 89.2525 117.435C88.5797 114.39 87.5551 112.197 86.4067 112.323C82.9506 112.709 74.8789 122.538 74.8789 122.538C74.8789 122.538 71.386 120.768 70.6237 123.391C69.6898 126.634 74.7085 129.545 74.7085 129.545V129.544Z" fill="#FFADAF" style="fill:#FFADAF;fill:color(display-p3 1.0000 0.6784 0.6863);fill-opacity:1;"/>
<path d="M70.207 137.286C70.207 137.286 73.5529 143.805 78.036 144.059C82.5413 144.313 82.5523 139.385 81.5694 137.297C81.5032 137.153 81.4481 136.988 81.415 136.811C81.1502 135.673 81.3267 133.894 81.3267 133.894C77.5617 132.568 74.7123 129.54 74.7123 129.54C74.4365 130.811 73.7073 132.258 72.9009 133.552C71.6422 135.607 70.207 137.286 70.207 137.286Z" fill="#FFADAF" style="fill:#FFADAF;fill:color(display-p3 1.0000 0.6784 0.6863);fill-opacity:1;"/>
<path d="M74.7129 129.54C74.8122 133.574 81.4156 136.81 81.4156 136.81C81.1509 135.672 81.3273 133.893 81.3273 133.893C77.5624 132.567 74.7129 129.539 74.7129 129.539V129.54Z" fill="#FF9396" style="fill:#FF9396;fill:color(display-p3 1.0000 0.5765 0.5882);fill-opacity:1;"/>
<path d="M64.7249 122.59C62.085 127.945 72.9032 133.551 72.9032 133.551C73.7023 132.257 74.4388 130.811 74.7072 129.544C74.7072 129.544 69.6885 126.634 70.6224 123.39C71.3859 120.767 74.8776 122.536 74.8776 122.536C74.8776 122.536 75.9377 123.562 77.3239 123.401C78.4159 123.401 80.3584 117.998 82.0914 117.449C82.7287 117.252 87.9043 118.107 89.2512 117.433C91.586 116.266 94.3055 114.226 95.0151 110.785C96.1463 105.368 88.7034 108.045 84.708 104.533C80.7126 101.021 81.2874 107.013 75.0663 106.078C68.8539 105.144 65.6306 112.322 65.6306 112.322C58.3764 113.687 64.7237 122.59 64.7237 122.59H64.7249Z" fill="#300B4C" style="fill:#300B4C;fill:color(display-p3 0.1882 0.0431 0.2980);fill-opacity:1;"/>
<path d="M250.523 171.303C252.466 175.451 256.827 178.436 261.752 178.221C266.678 178.006 270.761 174.655 272.338 170.353L250.523 171.302V171.303Z" fill="#20282B" style="fill:#20282B;fill:color(display-p3 0.1255 0.1569 0.1686);fill-opacity:1;"/>
<path d="M283.466 141.287C279.443 145.137 276.512 149.978 275.165 155.282L246.661 156.526C244.862 151.362 241.519 146.784 236.912 143.313C233.504 140.701 230.587 137.496 228.306 133.855C224.967 128.503 222.993 122.196 222.855 115.343C222.576 96.7447 237.061 80.3786 255.598 78.7867C266.946 77.7247 277.359 81.9668 284.65 89.3422C290.768 95.5343 294.685 103.936 295.087 113.254C295.565 124.244 291.029 134.406 283.466 141.287Z" fill="#FFC800" style="fill:#FFC800;fill:color(display-p3 1.0000 0.7860 0.0000);fill-opacity:1;"/>
<path opacity="0.5" d="M283.465 141.287C279.443 145.136 276.511 149.978 275.165 155.282L246.661 156.526C244.862 151.362 241.519 146.783 236.912 143.313C233.503 140.701 230.586 137.496 228.306 133.855C230.247 133.779 232.177 133.61 234.106 133.355C248.352 131.457 261.896 124.606 271.865 114.247C278.434 107.434 283.538 98.5828 284.649 89.3433C290.767 95.5353 294.684 103.937 295.086 113.255C295.564 124.245 291.028 134.407 283.465 141.288V141.287Z" fill="#FFA903" style="fill:#FFA903;fill:color(display-p3 1.0000 0.6627 0.0118);fill-opacity:1;"/>
<path d="M275.155 161.054L246.909 162.283C245.341 162.351 243.975 161.099 243.908 159.529C243.839 157.96 245.091 156.593 246.659 156.526L274.905 155.297C276.474 155.228 277.839 156.481 277.907 158.05C277.975 159.62 276.724 160.986 275.155 161.054Z" fill="#2E363A" style="fill:#2E363A;fill:color(display-p3 0.1804 0.2118 0.2275);fill-opacity:1;"/>
<path d="M275.553 170.214L247.307 171.443C245.738 171.511 244.373 170.259 244.305 168.69C244.237 167.12 245.488 165.754 247.057 165.686L275.303 164.457C276.872 164.389 278.237 165.641 278.304 167.211C278.373 168.78 277.122 170.146 275.553 170.214Z" fill="#2E363A" style="fill:#2E363A;fill:color(display-p3 0.1804 0.2118 0.2275);fill-opacity:1;"/>
<path d="M223.643 162.681C223.125 162.358 223.403 160.778 224.939 158.146C226.421 156.048 228.003 154.02 229.678 152.073C231.857 149.946 233.323 149.295 233.77 149.73C234.235 150.182 233.584 151.585 231.883 153.972C230.268 155.85 228.742 157.805 227.313 159.827C225.409 162.059 224.206 163.032 223.643 162.681Z" fill="white" style="fill:white;fill-opacity:1;"/>
<path d="M298.962 160.31C298.413 160.635 297.238 159.633 295.329 157.442C293.88 155.458 292.273 153.589 290.529 151.858C288.65 149.646 287.836 148.332 288.248 147.827C288.637 147.346 290.189 147.825 292.578 149.793C294.43 151.63 296.135 153.615 297.675 155.72C299.266 158.38 299.508 159.989 298.962 160.309V160.31Z" fill="white" style="fill:white;fill-opacity:1;"/>
<path d="M318.792 130.933C318.551 131.504 317.102 131.5 314.514 130.687L308.192 128.015C305.807 126.727 304.795 125.69 305.042 125.104C305.29 124.517 306.732 124.534 309.323 125.333L315.645 128.006C318.026 129.309 319.045 130.332 318.791 130.933H318.792Z" fill="white" style="fill:white;fill-opacity:1;"/>
<path d="M321.532 89.971C321.692 90.572 320.416 91.4954 317.607 92.517L310.3 94.4805C307.361 95.0041 305.794 94.8435 305.628 94.229C305.463 93.6158 306.744 92.7059 309.545 91.6708L316.852 89.7074C319.799 89.1972 321.361 89.3419 321.53 89.9723L321.532 89.971Z" fill="white" style="fill:white;fill-opacity:1;"/>
<path d="M293.49 60.1847C294.049 60.4361 294.113 61.725 293.271 63.9325C292.362 65.6985 291.375 67.4241 290.319 69.1054C288.848 70.9511 287.706 71.5508 287.192 71.1878C286.666 70.8175 286.889 69.5984 287.855 67.5553C288.869 65.945 289.814 64.2894 290.685 62.5982C291.952 60.7255 292.889 59.9137 293.489 60.1847H293.49Z" fill="white" style="fill:white;fill-opacity:1;"/>
<path d="M255.506 62.1972C254.926 61.9225 254.967 60.6961 255.343 58.534C255.864 56.7558 256.158 54.9088 256.216 53.0558C256.528 50.8863 256.872 49.7077 257.524 49.6243C258.131 49.5422 258.909 50.6545 259.123 53.149C259.058 55.2473 258.726 57.3346 258.136 59.3484C257.158 61.6552 256.071 62.472 255.507 62.1972H255.506Z" fill="white" style="fill:white;fill-opacity:1;"/>
<path d="M229.051 73.1172C228.519 73.4704 227.394 72.6782 225.574 70.9159C224.188 69.2835 222.646 67.7837 220.976 66.4432C219.166 64.6748 218.343 63.571 218.69 63.0155C219.014 62.4906 220.475 62.6782 222.798 64.1756C224.611 65.6301 226.284 67.2575 227.788 69.0297C229.35 71.3144 229.578 72.7702 229.05 73.1184L229.051 73.1172Z" fill="white" style="fill:white;fill-opacity:1;"/>
<path d="M210.665 98.6896C210.341 99.2194 209.125 99.1679 207.136 98.3204L202.41 95.604C200.678 94.3114 200.021 93.2861 200.323 92.7257C200.624 92.164 201.81 92.2179 203.828 93.0617L208.617 95.8149C210.364 97.1333 211.007 98.1328 210.667 98.6884L210.665 98.6896Z" fill="white" style="fill:white;fill-opacity:1;"/>
<path d="M215.002 127.133C215.379 127.603 214.798 128.865 212.763 130.428C210.927 131.554 208.982 132.5 206.963 133.248C204.478 133.878 203.129 133.554 202.989 132.953C202.837 132.317 203.873 131.569 205.95 130.518C207.794 129.836 209.571 128.971 211.247 127.945C213.359 126.959 214.587 126.608 215.002 127.133Z" fill="white" style="fill:white;fill-opacity:1;"/>
<path d="M273.579 161.124L248.483 162.216L248.631 165.618L273.727 164.526L273.579 161.124Z" fill="#20282B" style="fill:#20282B;fill:color(display-p3 0.1255 0.1569 0.1686);fill-opacity:1;"/>
<path d="M346.052 165.993C346.052 165.993 367.111 196.713 385.226 203.17C386.976 203.786 388.659 204.103 390.255 204.046C393.813 203.92 397.188 202.516 400.361 200.447C403.438 198.446 406.322 195.839 408.995 193.192C410.553 191.643 411.216 189.564 411.216 187.255V187.217C411.206 185.495 410.831 183.637 410.188 181.79C406.957 172.486 396.899 163.211 392.553 169.984C390.995 172.399 389.332 173.881 388.399 174.603C388.169 174.785 387.976 174.92 387.842 175.016H387.832C387.707 175.113 387.63 175.151 387.63 175.151L352.67 156.318L346.052 165.993Z" fill="#FFADAF" style="fill:#FFADAF;fill:color(display-p3 1.0000 0.6784 0.6863);fill-opacity:1;"/>
<path d="M385.226 203.17C386.976 203.786 388.658 204.103 390.254 204.046C393.812 203.921 397.187 202.517 400.36 200.448C403.438 198.446 406.322 195.839 408.995 193.192C410.552 191.643 411.215 189.565 411.215 187.255V187.217C411.205 185.496 410.83 183.638 410.187 181.791C406.956 172.486 396.898 163.211 392.552 169.984C390.994 172.399 389.331 173.882 388.399 174.603C388.168 174.786 387.976 174.92 387.841 175.016C390.302 179.134 391.052 184.349 390.361 189.17C389.649 194.126 387.64 198.753 385.226 203.17Z" fill="#FF9396" style="fill:#FF9396;fill:color(display-p3 1.0000 0.5765 0.5882);fill-opacity:1;"/>
<path d="M348.043 155.599L352.675 156.327C352.675 156.327 350.694 146.358 347.69 148.079C345.569 149.312 347.461 154.517 348.043 155.599Z" fill="#FFADAF" style="fill:#FFADAF;fill:color(display-p3 1.0000 0.6784 0.6863);fill-opacity:1;"/>
<path d="M389.302 183.304L393.978 182.962C393.978 182.962 389.79 173.701 387.253 176.06C385.466 177.744 388.488 182.382 389.301 183.304H389.302Z" fill="#FFADAF" style="fill:#FFADAF;fill:color(display-p3 1.0000 0.6784 0.6863);fill-opacity:1;"/>
<path d="M333.872 150.92C331.478 161.663 346.049 165.995 346.049 165.995L352.68 156.327L348.253 153.54C346.716 151.258 335.886 141.966 333.872 150.919V150.92Z" fill="#FFADAF" style="fill:#FFADAF;fill:color(display-p3 1.0000 0.6784 0.6863);fill-opacity:1;"/>
<path d="M445.755 384.458V397.882C445.755 398.702 445.096 399.363 444.276 399.363H412.556C411.72 399.363 411.043 398.67 411.076 397.834C411.124 396.627 411.253 393.568 411.672 393.23C418.396 387.79 424.782 389.415 425.634 386.856C426.487 384.297 426.824 381.448 426.824 381.448C426.824 381.448 444.63 381.191 445.757 384.459L445.755 384.458Z" fill="#100A48" style="fill:#100A48;fill:color(display-p3 0.0627 0.0392 0.2824);fill-opacity:1;"/>
<path d="M495.534 384.458V397.882C495.534 398.702 494.874 399.363 494.054 399.363H462.334C461.498 399.363 460.822 398.67 460.855 397.834C460.902 396.627 461.031 393.568 461.45 393.23C468.174 387.79 474.56 389.415 475.412 386.856C476.265 384.297 476.602 381.448 476.602 381.448C476.602 381.448 494.409 381.191 495.535 384.459L495.534 384.458Z" fill="#1F143F" style="fill:#1F143F;fill:color(display-p3 0.1216 0.0784 0.2471);fill-opacity:1;"/>
<path d="M391.423 171.613C393.511 174.041 397.377 178.304 401.849 182.144C405.01 184.854 408.479 187.339 411.837 188.807C414.518 186.52 417.607 183.922 420.231 181.325C423.49 178.077 426.03 174.803 426.157 171.993C426.51 164.539 416.593 142.56 416.593 142.56C416.593 142.56 401.159 156.155 391.424 171.612L391.423 171.613Z" fill="#FF640B" style="fill:#FF640B;fill:color(display-p3 1.0000 0.3922 0.0431);fill-opacity:1;"/>
<g opacity="0.5">
<path d="M401.848 182.144C405.008 184.854 408.478 187.339 411.836 188.807C414.516 186.52 417.606 183.922 420.23 181.325C422.148 173.814 422.022 165.768 419.905 158.314C419.158 155.618 418.128 153.006 416.859 150.507C415.617 148.079 414.135 146.582 413.755 150.225C413.177 155.97 411.823 161.645 409.791 167.052C407.802 172.388 405.121 177.47 401.848 182.143V182.144Z" fill="#AB1447" style="fill:#AB1447;fill:color(display-p3 0.6706 0.0784 0.2784);fill-opacity:1;"/>
</g>
<path d="M411.903 303.593C412.009 319.681 415.971 380.414 417.749 382.424C420.682 385.724 431.489 385.782 440.192 384.753C443.558 384.359 446.616 383.8 448.779 383.204C450.836 382.636 452.087 382.048 452.039 381.53C452.039 381.53 447.856 324.368 448.558 308.848C448.943 300.361 451.308 270.082 451.789 263.952C451.818 263.635 451.837 263.394 451.846 263.212C451.866 262.981 451.876 262.866 451.876 262.866C451.876 262.866 457.107 303.469 459.27 316.949C461.962 333.845 468.029 384.349 469.578 385.667C472.261 387.929 486.933 388.64 495.809 386.495C496.877 386.235 497.847 385.937 498.713 385.591C500.29 384.966 501.491 384.197 502.126 383.282C503.606 381.146 496.155 333.192 495.328 314.515C494.76 301.757 493.443 274.268 489.434 250.906C489.289 250.04 489.136 249.184 488.981 248.328C487.943 242.681 486.741 237.312 485.346 232.52C484.086 228.19 482.673 224.332 481.078 221.138L417.856 225.487C417.856 225.487 417.548 228.46 417.068 233.29C417.01 233.771 416.963 234.281 416.914 234.801C416.808 235.889 416.693 237.043 416.568 238.276C414.798 256.548 411.808 289.472 411.905 303.598L411.903 303.593Z" fill="#262626" style="fill:#262626;fill:color(display-p3 0.1500 0.1500 0.1500);fill-opacity:1;"/>
<path d="M413.386 217.375C414.27 226.958 415.136 233.491 415.289 233.531C423.76 235.224 449.712 236.725 468.001 236.032C478.675 235.618 486.732 234.464 487.184 232.164C487.396 231.048 489.28 214.355 489.386 195.718C489.502 177.35 487.896 157.086 481.3 147.965C480.819 147.194 480.272 146.454 479.665 145.751C467.011 130.702 429.598 129.288 416.588 142.556C408.761 150.552 411.175 193.455 413.386 217.374V217.375Z" fill="#FF640B" style="fill:#FF640B;fill:color(display-p3 1.0000 0.3922 0.0431);fill-opacity:1;"/>
<path d="M442.448 133.776C443.374 135.952 452.789 137.053 453.543 134.37C453.642 134.036 452.616 127.866 451.838 123.7C451.578 122.304 451.344 121.116 451.183 120.424C451.084 119.991 451.011 119.744 450.974 119.744C450.875 119.781 449.639 120.139 448.256 120.535C446.34 121.08 444.129 121.71 444.129 121.71L443.239 126.012C443.239 126.223 442.918 128.708 442.683 130.81C442.51 132.306 442.386 133.604 442.448 133.776Z" fill="#FFADAF" style="fill:#FFADAF;fill:color(display-p3 1.0000 0.6784 0.6863);fill-opacity:1;"/>
<path d="M442.683 130.81C445.178 129.944 447.613 128.498 449.046 126.766C449.071 126.742 449.182 126.655 449.355 126.482C449.899 125.975 451.072 124.862 451.838 123.7C452.543 122.662 452.901 121.586 452.171 120.907C451.838 120.598 451.505 120.449 451.182 120.425C449.724 120.264 448.427 122.366 448.427 122.366L448.254 120.536C446.339 121.081 444.128 121.711 444.128 121.711L443.238 126.013C443.238 126.224 442.917 128.709 442.682 130.811L442.683 130.81Z" fill="#FF9396" style="fill:#FF9396;fill:color(display-p3 1.0000 0.5765 0.5882);fill-opacity:1;"/>
<path d="M435.708 113.518C435.03 117.342 434.808 126.378 437.943 128.41C440.823 130.277 447.328 128.085 450.534 124.208C450.562 124.182 450.671 124.094 450.85 123.922C451.897 122.956 455.197 119.787 453.66 118.348C451.873 116.645 449.916 119.802 449.916 119.802L449.265 112.911C449.265 112.911 437.212 110.907 436.2 111.925C436.015 112.112 435.85 112.68 435.708 113.516V113.518Z" fill="#FFADAF" style="fill:#FFADAF;fill:color(display-p3 1.0000 0.6784 0.6863);fill-opacity:1;"/>
<path d="M433.442 110.996C433.572 111.994 434.432 112.833 435.707 113.519C439.881 115.766 448.362 116.408 448.442 116.44C448.555 116.484 448.24 119.762 448.453 119.976C448.65 120.183 449.914 119.804 449.914 119.804C449.914 119.804 451.872 116.649 453.658 118.351C455.195 119.789 451.894 122.958 450.848 123.925C457.444 121.45 459.597 111.14 453.051 105.547C446.49 99.9489 432.861 106.681 433.441 110.996H433.442Z" fill="#262040" style="fill:#262040;fill:color(display-p3 0.1490 0.1255 0.2510);fill-opacity:1;"/>
<path d="M316.854 172.981C317.72 152.684 334.866 136.934 355.149 137.802C375.433 138.669 391.172 155.826 390.304 176.123C389.436 196.42 372.293 212.169 352.009 211.301C331.726 210.432 315.986 193.278 316.854 172.981Z" fill="#FCC922" style="fill:#FCC922;fill:color(display-p3 0.9882 0.7882 0.1333);fill-opacity:1;"/>
<path d="M327.494 178.348C329.167 189.881 338.11 198.598 348.999 200.522C350.788 200.841 352.627 200.973 354.495 200.906C354.497 200.908 354.497 200.906 354.497 200.906C355.445 200.872 356.401 200.786 357.358 200.647C364.641 199.589 371.197 195.489 375.344 189.401C379.068 183.935 380.595 177.315 379.645 170.763C378.633 163.793 374.969 157.634 369.327 153.422C365.064 150.237 359.999 148.402 354.613 148.207C352.783 148.14 350.919 148.26 349.037 148.581C342.05 149.804 335.797 153.828 331.792 159.708C328.069 165.174 326.542 171.794 327.494 178.347V178.348Z" fill="#FFA903" style="fill:#FFA903;fill:color(display-p3 1.0000 0.6627 0.0118);fill-opacity:1;"/>
<path d="M361.09 182.972C360.476 183.899 359.603 184.639 358.47 185.188C357.338 185.739 356.028 186.057 354.54 186.144V188.441C354.54 188.722 354.448 188.953 354.266 189.137C354.082 189.32 353.839 189.412 353.538 189.412C353.256 189.412 353.026 189.326 352.842 189.153C352.659 188.98 352.567 188.744 352.567 188.441V186.144C350.239 185.993 348.061 185.485 346.035 184.623C345.775 184.515 345.559 184.337 345.388 184.09C345.215 183.842 345.128 183.577 345.128 183.296C345.128 182.929 345.252 182.611 345.501 182.341C345.748 182.071 346.067 181.936 346.455 181.936C346.671 181.936 346.876 181.98 347.069 182.066C348.816 182.842 350.648 183.274 352.567 183.36V175.916C351.1 175.527 349.867 175.106 348.863 174.654C347.861 174.201 347.026 173.56 346.357 172.728C345.688 171.898 345.355 170.847 345.355 169.573C345.355 168.451 345.629 167.416 346.179 166.466C346.729 165.517 347.548 164.73 348.638 164.103C349.725 163.478 351.035 163.1 352.567 162.97V160.705C352.567 160.424 352.659 160.187 352.842 159.994C353.026 159.799 353.256 159.702 353.538 159.702C353.82 159.702 354.055 159.799 354.249 159.994C354.442 160.189 354.54 160.425 354.54 160.705V162.938C356.652 163.025 358.528 163.381 360.168 164.006C360.771 164.222 361.073 164.654 361.073 165.3C361.073 165.646 360.955 165.959 360.717 166.238C360.48 166.519 360.168 166.659 359.78 166.659C359.651 166.659 359.477 166.616 359.263 166.53C357.796 166.013 356.222 165.721 354.542 165.656V173.359C356.093 173.725 357.381 174.125 358.406 174.557C359.43 174.989 360.287 175.63 360.978 176.482C361.667 177.335 362.013 178.463 362.013 179.865C362.013 181.009 361.706 182.044 361.091 182.971L361.09 182.972ZM349.382 171.547C350.104 172.065 351.165 172.508 352.567 172.874V165.754C351.274 165.927 350.239 166.32 349.463 166.936C348.687 167.551 348.299 168.355 348.299 169.347C348.299 170.339 348.66 171.03 349.382 171.547ZM359.102 179.671C359.102 178.83 358.718 178.177 357.954 177.712C357.188 177.249 356.05 176.812 354.542 176.403V183.36C357.582 183.144 359.102 181.915 359.102 179.671Z" fill="white" style="fill:white;fill-opacity:1;"/>
<path d="M394.215 193.186C394.215 193.186 377.717 195.375 376.824 183.996C375.943 172.822 389.675 181.646 390.038 181.949L394.231 182.577L394.214 193.187L394.215 193.186Z" fill="#FFADAF" style="fill:#FFADAF;fill:color(display-p3 1.0000 0.6784 0.6863);fill-opacity:1;"/>
<path d="M391.143 193.294C391.143 193.294 424.153 204.503 440.663 199.317C443.971 198.278 447.134 196.747 450.096 194.861C454.317 192.177 458.135 188.751 461.375 184.951V184.941C465.519 180.102 468.741 174.645 470.674 169.344C466.145 164.773 461.577 160.251 456.674 156.018C454.376 154.036 454.395 154.007 452.03 152.102C450.01 153.949 447.992 156.076 446.03 158.299C441.511 163.446 437.328 169.181 434.395 173.434C431.79 177.225 430.164 179.842 430.164 179.842L391.001 180.727C390.03 180.737 390.174 193.302 391.146 193.293L391.143 193.294Z" fill="#FFADAF" style="fill:#FFADAF;fill:color(display-p3 1.0000 0.6784 0.6863);fill-opacity:1;"/>
<path d="M434.395 173.435C435.779 174.273 437.02 175.466 438.115 176.658C443.067 182.018 447.115 188.205 450.097 194.863C454.318 192.178 458.135 188.753 461.376 184.952V184.943C461.433 184.346 461.471 183.759 461.511 183.163C461.723 179.69 461.713 176.168 461.001 172.772C460.28 169.366 458.808 166.056 456.385 163.554C453.76 160.85 450.174 159.234 446.491 158.397C446.337 158.359 446.183 158.33 446.029 158.302C441.51 163.449 437.327 169.183 434.395 173.437V173.435Z" fill="#FF9396" style="fill:#FF9396;fill:color(display-p3 1.0000 0.5765 0.5882);fill-opacity:1;"/>
<path d="M441.289 163.977C437.017 167.038 454.837 191.942 459.109 188.881C467.699 180.338 484.881 170.185 485.833 163.736C487.397 153.243 478.264 141.816 470.367 138.741C461.59 135.323 447.666 154.032 441.289 163.978V163.977Z" fill="#FF640B" style="fill:#FF640B;fill:color(display-p3 1.0000 0.3922 0.0431);fill-opacity:1;"/>
<path d="M364.352 215.402H242.908C238.921 215.402 235.689 218.636 235.689 222.625V241.784C235.689 245.773 238.921 249.007 242.908 249.007H364.352C368.339 249.007 371.571 245.773 371.571 241.784V222.625C371.571 218.636 368.339 215.402 364.352 215.402Z" fill="#FF640B" style="fill:#FF640B;fill:color(display-p3 1.0000 0.3922 0.0431);fill-opacity:1;"/>
<path d="M279.255 225.077C279.255 224.119 280.042 223.332 280.999 223.332H358.103C359.043 223.332 359.829 224.119 359.829 225.077C359.829 226.034 359.043 226.805 358.103 226.805H280.999C280.042 226.805 279.255 226.017 279.255 225.077Z" fill="white" style="fill:white;fill-opacity:1;"/>
<path d="M359.829 233.356C359.829 234.314 359.042 235.084 358.102 235.084H280.998C280.041 235.084 279.254 234.314 279.254 233.356C279.254 232.399 280.041 231.628 280.998 231.628H358.102C359.042 231.628 359.829 232.399 359.829 233.356Z" fill="white" style="fill:white;fill-opacity:1;"/>
<path d="M323.692 241.634C323.692 242.592 322.905 243.379 321.965 243.379H280.998C280.041 243.379 279.254 242.592 279.254 241.634C279.254 240.676 280.041 239.906 280.998 239.906H321.965C322.905 239.906 323.692 240.694 323.692 241.634Z" fill="white" style="fill:white;fill-opacity:1;"/>
<path d="M253.378 292.498C253.378 293.455 252.591 294.243 251.651 294.243H210.683C209.726 294.243 208.939 293.455 208.939 292.498C208.939 291.54 209.726 290.77 210.683 290.77H251.651C252.591 290.77 253.378 291.557 253.378 292.498Z" fill="white" style="fill:white;fill-opacity:1;"/>
<path d="M294.452 266.169H173.008C169.021 266.169 165.789 269.403 165.789 273.393V292.551C165.789 296.541 169.021 299.775 173.008 299.775H294.452C298.439 299.775 301.671 296.541 301.671 292.551V273.393C301.671 269.403 298.439 266.169 294.452 266.169Z" fill="#FFC800" style="fill:#FFC800;fill:color(display-p3 1.0000 0.7860 0.0000);fill-opacity:1;"/>
<path d="M209.355 275.844C209.355 274.886 210.142 274.099 211.099 274.099H288.203C289.143 274.099 289.93 274.886 289.93 275.844C289.93 276.802 289.143 277.572 288.203 277.572H211.099C210.142 277.572 209.355 276.785 209.355 275.844Z" fill="white" style="fill:white;fill-opacity:1;"/>
<path d="M289.928 284.123C289.928 285.08 289.141 285.851 288.201 285.851H211.098C210.14 285.851 209.354 285.08 209.354 284.123C209.354 283.165 210.14 282.395 211.098 282.395H288.201C289.141 282.395 289.928 283.165 289.928 284.123Z" fill="white" style="fill:white;fill-opacity:1;"/>
<path d="M253.378 292.498C253.378 293.455 252.591 294.243 251.651 294.243H210.683C209.726 294.243 208.939 293.455 208.939 292.498C208.939 291.54 209.726 290.77 210.683 290.77H251.651C252.591 290.77 253.378 291.557 253.378 292.498Z" fill="white" style="fill:white;fill-opacity:1;"/>
<path d="M282.204 113.185L281.08 107.497L275.354 106.992C274.697 105.658 273.876 104.432 272.921 103.336L274.659 97.8529L269.843 94.6275L265.437 98.3226C264.064 97.8565 262.619 97.5622 261.136 97.4616L258.489 92.355L252.801 93.4808L252.3 99.2105C250.966 99.8678 249.742 100.689 248.646 101.645L243.167 99.9058L239.94 104.722L243.632 109.131C243.167 110.509 242.873 111.954 242.773 113.438L237.67 116.087L238.794 121.775L244.52 122.28C245.177 123.614 245.998 124.839 246.952 125.932L245.215 131.415L250.032 134.644L254.438 130.949C255.816 131.415 257.26 131.71 258.743 131.809L261.385 136.916L267.073 135.79L267.578 130.06C268.911 129.403 270.136 128.581 271.228 127.626L276.707 129.365L279.934 124.544L276.241 120.135C276.707 118.761 277.001 117.316 277.102 115.832L282.205 113.183L282.204 113.185ZM262.348 126.841C255.631 128.17 249.108 123.798 247.78 117.076C246.451 110.355 250.82 103.828 257.538 102.498C264.255 101.169 270.778 105.541 272.106 112.263C273.435 118.985 269.066 125.512 262.348 126.841Z" fill="white" style="fill:white;fill-opacity:1;"/>
<path d="M259.943 123.869C265.021 123.869 269.138 119.75 269.138 114.669C269.138 109.588 265.021 105.469 259.943 105.469C254.865 105.469 250.749 109.588 250.749 114.669C250.749 119.75 254.865 123.869 259.943 123.869Z" fill="white" style="fill:white;fill-opacity:1;"/>
</g>
<defs>
<clipPath id="clip0_238_1383">
<rect width="527" height="410" fill="white" style="fill:white;fill-opacity:1;" transform="translate(0.5)"/>
</clipPath>
</defs>
</svg>
