<svg width="41" height="40" viewBox="0 0 41 40" fill="none" xmlns="http://www.w3.org/2000/svg">
<path d="M23.625 17.1875H20.5C18.7741 17.1875 17.375 18.5866 17.375 20.3125C17.375 22.0384 18.7741 23.4375 20.5 23.4375C22.2259 23.4375 23.625 24.8366 23.625 26.5625C23.625 28.2884 22.2259 29.6875 20.5 29.6875H17.375" stroke="#FFBA93" style="stroke:#FFBA93;stroke:color(display-p3 1.0000 0.7300 0.5750);stroke-opacity:1;" stroke-width="3.125" stroke-miterlimit="10" stroke-linecap="round" stroke-linejoin="round"/>
<path d="M20.5 32.8125V29.6875" stroke="#FFBA93" style="stroke:#FFBA93;stroke:color(display-p3 1.0000 0.7300 0.5750);stroke-opacity:1;" stroke-width="3.125" stroke-miterlimit="10" stroke-linecap="round" stroke-linejoin="round"/>
<path d="M20.5 17.1875V14.0625" stroke="#FFBA93" style="stroke:#FFBA93;stroke:color(display-p3 1.0000 0.7300 0.5750);stroke-opacity:1;" stroke-width="3.125" stroke-miterlimit="10" stroke-linecap="round" stroke-linejoin="round"/>
<path d="M31.8888 10.9336C34.4864 13.2241 36.125 16.577 36.125 20.3125V35.3125C36.125 37.0384 34.7259 38.4375 33 38.4375H8C6.27414 38.4375 4.875 37.0384 4.875 35.3125V20.3125C4.875 13.4089 10.4714 7.8125 17.375 7.8125" stroke="#FF640B" style="stroke:#FF640B;stroke:color(display-p3 1.0000 0.3922 0.0431);stroke-opacity:1;" stroke-width="3.125" stroke-miterlimit="10" stroke-linecap="round" stroke-linejoin="round"/>
<path d="M23.625 7.8125H17.375C13.9232 7.8125 11.125 5.0143 11.125 1.5625H29.875C29.875 5.0143 27.0768 7.8125 23.625 7.8125Z" stroke="#FF640B" style="stroke:#FF640B;stroke:color(display-p3 1.0000 0.3922 0.0431);stroke-opacity:1;" stroke-width="3.125" stroke-miterlimit="10" stroke-linecap="round" stroke-linejoin="round"/>
</svg>
