<svg width="51" height="51" viewBox="0 0 51 51" fill="none" xmlns="http://www.w3.org/2000/svg">
<rect x="0.769531" y="0.5" width="50" height="50" rx="25" fill="#FF640B" fill-opacity="0.1" style="fill:#FF640B;fill:color(display-p3 1.0000 0.3922 0.0431);fill-opacity:0.1;"/>
<rect x="1.53876" y="1.26923" width="48.4615" height="48.4615" rx="24.2308" stroke="#FF640B" stroke-opacity="0.1" style="stroke:#FF640B;stroke:color(display-p3 1.0000 0.3922 0.0431);stroke-opacity:0.1;" stroke-width="1.53846"/>
<g clip-path="url(#clip0_184_25791)">
<path fill-rule="evenodd" clip-rule="evenodd" d="M21.3964 27.3959C21.3953 27.2687 21.3439 27.147 21.2535 27.0575C21.1632 26.9679 21.0411 26.9176 20.9138 26.9176C20.7866 26.9176 20.6645 26.9679 20.5741 27.0575C20.4837 27.147 20.4324 27.2687 20.4312 27.3959V29.8181C20.4306 29.8818 20.4427 29.945 20.4667 30.0041C20.4907 30.0631 20.5261 30.1168 20.571 30.1621C20.6159 30.2074 20.6693 30.2433 20.7281 30.2679C20.787 30.2924 20.8501 30.305 20.9138 30.305C20.9776 30.305 21.0407 30.2924 21.0995 30.2679C21.1583 30.2433 21.2117 30.2074 21.2566 30.1621C21.3015 30.1168 21.3369 30.0631 21.3609 30.0041C21.3849 29.945 21.397 29.8818 21.3964 29.8181V27.3959ZM16.5963 22.9125H20.4312V25.3688C20.4306 25.4325 20.4427 25.4957 20.4667 25.5548C20.4907 25.6138 20.5261 25.6675 20.571 25.7128C20.6159 25.7581 20.6693 25.794 20.7281 25.8186C20.787 25.8431 20.8501 25.8557 20.9138 25.8557C20.9776 25.8557 21.0407 25.8431 21.0995 25.8186C21.1583 25.794 21.2117 25.7581 21.2566 25.7128C21.3015 25.6675 21.3369 25.6138 21.3609 25.5548C21.3849 25.4957 21.397 25.4325 21.3964 25.3688V22.9125H34.9135C35.1325 22.9126 35.3425 22.9997 35.4973 23.1545C35.6522 23.3094 35.7392 23.5194 35.7393 23.7384V25.8226L35.6026 25.8782C35.0594 26.0984 34.5943 26.4758 34.2668 26.962C33.9393 27.4481 33.7643 28.021 33.7643 28.6072C33.7643 29.1934 33.9393 29.7662 34.2668 30.2524C34.5943 30.7385 35.0594 31.1159 35.6026 31.3362L35.7393 31.3917V33.4757C35.7392 33.6948 35.6522 33.9048 35.4973 34.0597C35.3425 34.2146 35.1325 34.3016 34.9135 34.3018H21.3964V31.8452C21.397 31.7815 21.3849 31.7183 21.3609 31.6592C21.3369 31.6002 21.3015 31.5465 21.2566 31.5012C21.2117 31.4559 21.1583 31.42 21.0995 31.3954C21.0407 31.3709 20.9776 31.3583 20.9138 31.3583C20.8501 31.3583 20.787 31.3709 20.7281 31.3954C20.6693 31.42 20.6159 31.4559 20.571 31.5012C20.5261 31.5465 20.4907 31.6002 20.4667 31.6592C20.4427 31.7183 20.4306 31.7815 20.4312 31.8452V34.3017H16.5953C16.3763 34.3015 16.1664 34.2144 16.0115 34.0595C15.8567 33.9046 15.7697 33.6947 15.7695 33.4757V31.3916L15.9062 31.3361C16.4487 31.1147 16.913 30.737 17.2403 30.2511C17.5676 29.7651 17.743 29.1929 17.7443 28.607C17.7429 28.0212 17.5675 27.4489 17.2402 26.9631C16.913 26.4772 16.4486 26.0995 15.9062 25.8781L15.7695 25.8225V23.7384C15.7697 23.52 15.8563 23.3105 16.0105 23.1557C16.1647 23.0009 16.3739 22.9135 16.5923 22.9125L16.5963 22.9125ZM34.0164 16.7462C34.2228 16.6736 34.4495 16.6855 34.6471 16.7795C34.8447 16.8734 34.9972 17.0417 35.0711 17.2477L35.7695 19.2111L35.6592 19.3093C35.3245 19.6095 35.0623 19.9818 34.8926 20.3982C34.7229 20.8146 34.6501 21.2641 34.6797 21.7128L34.6955 21.9472H19.3925L34.0164 16.7462Z" fill="url(#paint0_linear_184_25791)" style=""/>
</g>
<defs>
<linearGradient id="paint0_linear_184_25791" x1="15.7695" y1="34.3018" x2="37.9502" y2="30.8944" gradientUnits="userSpaceOnUse">
<stop offset="0.108" stop-color="#F7A200" style="stop-color:#F7A200;stop-color:color(display-p3 0.9686 0.6353 0.0000);stop-opacity:1;"/>
<stop offset="0.943" stop-color="#FF610C" style="stop-color:#FF610C;stop-color:color(display-p3 1.0000 0.3804 0.0471);stop-opacity:1;"/>
</linearGradient>
<clipPath id="clip0_184_25791">
<rect width="20" height="20" fill="white" style="fill:white;fill-opacity:1;" transform="translate(15.7695 15.5)"/>
</clipPath>
</defs>
</svg>
