<svg width="35" height="40" viewBox="0 0 35 40" fill="none" xmlns="http://www.w3.org/2000/svg">
<path d="M24.8547 13.2463H12.6579V7.96163C12.6579 5.26803 14.8493 3.07673 17.5429 3.07673C20.2365 3.07673 22.4278 5.28759 22.4278 8.00497C22.4278 8.86907 23.1282 9.56951 23.9923 9.56951C24.8564 9.56951 25.5569 8.86907 25.5569 8.00497C25.1652 -2.65145 9.94157 -2.6707 9.52884 7.96163V13.2672C4.64026 13.5871 0.760742 17.6655 0.760742 22.6335V30.6126C0.760742 35.7888 4.97187 39.9999 10.148 39.9999H24.8547C30.0309 39.9999 34.242 35.7888 34.242 30.6126V22.6335C34.242 17.4574 30.0309 13.2463 24.8547 13.2463ZM31.1129 30.6127C31.1129 34.0635 28.3055 36.8709 24.8547 36.8709H10.148C6.69725 36.8709 3.88983 34.0635 3.88983 30.6127V22.6335C3.88983 19.1828 6.69725 16.3754 10.148 16.3754H24.8547C28.3055 16.3754 31.1129 19.1828 31.1129 22.6335V30.6127Z" fill="#FF640B" style="fill:#FF640B;fill:color(display-p3 1.0000 0.3922 0.0431);fill-opacity:1;"/>
<path d="M22.1946 25.0589C22.1946 22.4708 20.0891 20.3652 17.501 20.3652C12.2096 20.4656 11.0377 27.6714 15.9365 29.4834V31.7864C16.0134 33.8601 18.9894 33.8585 19.0655 31.7864V29.4834C20.8865 28.8375 22.1946 27.0984 22.1946 25.0589ZM17.501 26.6234C16.6383 26.6234 15.9365 25.9216 15.9365 25.0589C16.0151 22.9862 18.9872 22.9867 19.0655 25.0589C19.0655 25.9216 18.3637 26.6234 17.501 26.6234Z" fill="#FFBA93" style="fill:#FFBA93;fill:color(display-p3 1.0000 0.7300 0.5750);fill-opacity:1;"/>
</svg>
