<svg width="21" height="19" viewBox="0 0 21 19" fill="none" xmlns="http://www.w3.org/2000/svg">
<path d="M0.600904 10.3045C0.868758 10.5724 1.30309 10.5723 1.57096 10.3045L1.57096 10.3045L1.87304 10.0025C1.93645 12.244 2.83936 14.3426 4.43165 15.9349C6.08388 17.5871 8.28116 18.4972 10.6178 18.4972C13.8839 18.4972 16.8553 16.6984 18.372 13.803C18.5478 13.4674 18.4182 13.0529 18.0827 12.8771C17.7471 12.7012 17.3325 12.8308 17.1567 13.1664C15.8775 15.6085 13.372 17.1254 10.6178 17.1254C6.63767 17.1254 3.38372 13.9567 3.24588 10.0096L3.54083 10.3045C3.67475 10.4384 3.85047 10.5054 4.02584 10.5054C4.20118 10.5054 4.37697 10.4385 4.51087 10.3045C4.77873 10.0366 4.77872 9.60234 4.51085 9.33447L3.06906 7.89264C2.94366 7.75067 2.76022 7.66025 2.55521 7.66025C2.34338 7.66025 2.15399 7.75643 2.02834 7.90703L0.600916 9.33446C0.333027 9.6023 0.333033 10.0366 0.600904 10.3045ZM0.600904 10.3045L0.671599 10.2338L0.60091 10.3045C0.600908 10.3045 0.600906 10.3045 0.600904 10.3045Z" fill="url(#paint0_linear_184_25832)" stroke="url(#paint1_linear_184_25832)" style="" stroke-width="0.2"/>
<path d="M19.4289 8.69575C19.6968 8.42788 20.1311 8.42787 20.399 8.69575C20.6669 8.9636 20.6668 9.3979 20.3989 9.66581L18.9714 11.0934C18.8457 11.2439 18.6564 11.34 18.4446 11.34C18.2394 11.34 18.0558 11.2494 17.9304 11.1071L16.489 9.66577C16.2211 9.39789 16.2211 8.9636 16.489 8.69572C16.7569 8.42784 17.1912 8.42783 17.459 8.69571C17.459 8.69572 17.459 8.69572 17.459 8.69572L17.7539 8.99062C17.616 5.04359 14.3621 1.8749 10.3821 1.8749C7.6278 1.8749 5.12233 3.39176 3.84308 5.83388L3.7545 5.78748L3.84308 5.83388C3.6673 6.16944 3.25273 6.299 2.9172 6.12321C2.9172 6.12321 2.9172 6.12321 2.91719 6.12321L2.9636 6.03463C2.67692 5.88447 2.56626 5.53033 2.71645 5.24369L19.4289 8.69575ZM19.4289 8.69575L19.1268 8.99784C19.0634 6.75624 18.1605 4.65773 16.5682 3.0654C14.916 1.41317 12.7187 0.503027 10.3821 0.503027C7.11594 0.503027 4.14457 2.30191 2.62787 5.19729L19.4289 8.69575Z" fill="url(#paint2_linear_184_25832)" stroke="url(#paint3_linear_184_25832)" style="" stroke-width="0.2"/>
<defs>
<linearGradient id="paint0_linear_184_25832" x1="9.42522" y1="7.76025" x2="9.42522" y2="18.3972" gradientUnits="userSpaceOnUse">
<stop stop-color="#FF640B" style="stop-color:#FF640B;stop-color:color(display-p3 1.0000 0.3922 0.0431);stop-opacity:1;"/>
<stop offset="1" stop-color="#FF7F35" style="stop-color:#FF7F35;stop-color:color(display-p3 1.0000 0.4971 0.2083);stop-opacity:1;"/>
</linearGradient>
<linearGradient id="paint1_linear_184_25832" x1="9.42522" y1="7.76025" x2="9.42522" y2="18.3972" gradientUnits="userSpaceOnUse">
<stop stop-color="#FF640B" style="stop-color:#FF640B;stop-color:color(display-p3 1.0000 0.3922 0.0431);stop-opacity:1;"/>
<stop offset="1" stop-color="#FF7F35" style="stop-color:#FF7F35;stop-color:color(display-p3 1.0000 0.4971 0.2083);stop-opacity:1;"/>
</linearGradient>
<linearGradient id="paint2_linear_184_25832" x1="11.5746" y1="0.603027" x2="11.5746" y2="11.24" gradientUnits="userSpaceOnUse">
<stop stop-color="#FF640B" style="stop-color:#FF640B;stop-color:color(display-p3 1.0000 0.3922 0.0431);stop-opacity:1;"/>
<stop offset="1" stop-color="#FF7F35" style="stop-color:#FF7F35;stop-color:color(display-p3 1.0000 0.4971 0.2083);stop-opacity:1;"/>
</linearGradient>
<linearGradient id="paint3_linear_184_25832" x1="11.5746" y1="0.603027" x2="11.5746" y2="11.24" gradientUnits="userSpaceOnUse">
<stop stop-color="#FF640B" style="stop-color:#FF640B;stop-color:color(display-p3 1.0000 0.3922 0.0431);stop-opacity:1;"/>
<stop offset="1" stop-color="#FF7F35" style="stop-color:#FF7F35;stop-color:color(display-p3 1.0000 0.4971 0.2083);stop-opacity:1;"/>
</linearGradient>
</defs>
</svg>
