<svg width="41" height="40" viewBox="0 0 41 40" fill="none" xmlns="http://www.w3.org/2000/svg">
<path d="M34.9743 8.74587C33.0969 7.82797 31.7574 6.01176 31.4786 4.00602C31.1612 1.72215 29.1767 0 26.8625 0H14.137C11.823 0 9.83814 1.72527 9.51997 4.01304C9.23645 6.0511 7.93075 7.82087 6.02711 8.74712C4.36109 9.55777 3.32617 11.1739 3.32617 12.9651V15.6581C3.32617 25.9248 9.27502 35.2403 18.5426 39.5706C19.1553 39.8568 19.8272 39.9999 20.4993 39.9999C21.1712 39.9999 21.8434 39.8568 22.4559 39.5706C31.7204 35.2417 37.6724 25.9286 37.6724 15.6581V12.9653C37.6724 11.1763 36.6385 9.55949 34.9743 8.74587ZM34.55 15.6581C34.55 24.6579 29.284 32.9338 21.1341 36.7418C20.7426 36.9248 20.256 36.9248 19.8644 36.7418C11.7146 32.9338 6.44856 24.658 6.44856 15.6581V12.9651C6.44856 12.3787 6.81052 11.8383 7.39323 11.5548C10.2343 10.1723 12.1855 7.51378 12.6126 4.44315C12.7172 3.69019 13.3727 3.12238 14.137 3.12238H26.8625C27.6269 3.12238 28.2819 3.68699 28.386 4.43581C28.8122 7.50231 30.7624 10.1621 33.6028 11.5509C34.187 11.8366 34.55 12.3785 34.55 12.9654V15.6581Z" fill="#FF640B" style="fill:#FF640B;fill:color(display-p3 1.0000 0.3922 0.0431);fill-opacity:1;"/>
<path d="M18.9383 12.4456C17.1212 13.0901 15.8159 14.8254 15.8159 16.8606C15.8159 19.4432 17.917 21.5442 20.4995 21.5442C21.3603 21.5442 22.0607 22.2446 22.0607 23.1054C22.0607 23.9663 21.3603 24.6666 20.4995 24.6666H17.3771C16.5149 24.6666 15.8159 25.3656 15.8159 26.2278C15.8159 27.09 16.5149 27.789 17.3771 27.789H18.9383V29.3502C18.9383 30.2124 19.6372 30.9114 20.4995 30.9114C21.3617 30.9114 22.0607 30.2124 22.0607 29.3502V27.5205C23.8778 26.876 25.1831 25.1407 25.1831 23.1054C25.1831 20.5229 23.082 18.4218 20.4995 18.4218C19.6387 18.4218 18.9383 17.7215 18.9383 16.8606C18.9383 15.9998 19.6387 15.2995 20.4995 15.2995H23.6219C24.4841 15.2995 25.1831 14.6005 25.1831 13.7383C25.1831 12.876 24.4841 12.1771 23.6219 12.1771H22.0607V10.6159C22.0607 9.75363 21.3617 9.05469 20.4995 9.05469C19.6372 9.05469 18.9383 9.75363 18.9383 10.6159V12.4456Z" fill="#FFBA93" style="fill:#FFBA93;fill:color(display-p3 1.0000 0.7300 0.5750);fill-opacity:1;"/>
</svg>
