<svg width="17" height="15" viewBox="0 0 17 15" fill="none" xmlns="http://www.w3.org/2000/svg">
<path d="M16.0003 7.5C15.5003 7.5 15.167 7.83333 15.167 8.33333C15.167 9.75 14.0837 10.8333 12.667 10.8333H3.00033L4.08366 9.75C4.41699 9.41667 4.41699 8.91667 4.08366 8.58333C3.75033 8.25 3.25033 8.25 2.91699 8.58333L0.416992 11.0833C0.333659 11.1667 0.250325 11.25 0.250325 11.3333C0.166992 11.4167 0.166992 11.5833 0.166992 11.6667C0.166992 11.75 0.166992 11.9167 0.250325 12C0.250325 12.0833 0.333659 12.1667 0.416992 12.25L2.91699 14.75C3.08366 14.9167 3.25033 15 3.50033 15C3.75033 15 3.91699 14.9167 4.08366 14.75C4.41699 14.4167 4.41699 13.9167 4.08366 13.5833L3.00033 12.5H12.667C15.0003 12.5 16.8337 10.6667 16.8337 8.33333C16.8337 7.83333 16.5003 7.5 16.0003 7.5ZM16.7503 3C16.7503 2.91667 16.667 2.83333 16.5837 2.75L14.0837 0.25C13.7503 -0.0833333 13.2503 -0.0833333 12.917 0.25C12.5837 0.583333 12.5837 1.08333 12.917 1.41667L14.0003 2.5H4.33366C2.00033 2.5 0.166992 4.33333 0.166992 6.66667C0.166992 7.16667 0.500326 7.5 1.00033 7.5C1.50033 7.5 1.83366 7.16667 1.83366 6.66667C1.83366 5.25 2.91699 4.16667 4.33366 4.16667H14.0003L12.917 5.25C12.5837 5.58333 12.5837 6.08333 12.917 6.41667C13.2503 6.75 13.7503 6.75 14.0837 6.41667L16.5837 3.91667C16.667 3.83333 16.7503 3.75 16.7503 3.66667C16.8337 3.58333 16.8337 3.41667 16.8337 3.33333C16.8337 3.25 16.8337 3.08333 16.7503 3Z" fill="url(#paint0_linear_184_25830)" style=""/>
<defs>
<linearGradient id="paint0_linear_184_25830" x1="8.50033" y1="0" x2="8.50033" y2="15" gradientUnits="userSpaceOnUse">
<stop stop-color="#FF640B" style="stop-color:#FF640B;stop-color:color(display-p3 1.0000 0.3922 0.0431);stop-opacity:1;"/>
<stop offset="1" stop-color="#FF7F35" style="stop-color:#FF7F35;stop-color:color(display-p3 1.0000 0.4971 0.2083);stop-opacity:1;"/>
</linearGradient>
</defs>
</svg>
