<svg width="41" height="40" viewBox="0 0 41 40" fill="none" xmlns="http://www.w3.org/2000/svg">
<path d="M17.9999 15.9377C18.5701 16.6966 19.4777 17.1875 20.5 17.1875C22.2259 17.1875 23.625 15.7884 23.625 14.0625C23.625 12.3366 22.2259 10.9375 20.5 10.9375C18.7741 10.9375 17.375 9.53836 17.375 7.8125C17.375 6.08664 18.7741 4.6875 20.5 4.6875C21.5223 4.6875 22.4299 5.17836 23.0001 5.93734" stroke="#FFBA93" style="stroke:#FFBA93;stroke:color(display-p3 1.0000 0.7300 0.5750);stroke-opacity:1;" stroke-width="3.125" stroke-miterlimit="10" stroke-linecap="round" stroke-linejoin="round"/>
<path d="M20.5 20.3125V17.1875" stroke="#FFBA93" style="stroke:#FFBA93;stroke:color(display-p3 1.0000 0.7300 0.5750);stroke-opacity:1;" stroke-width="3.125" stroke-miterlimit="10" stroke-linecap="round" stroke-linejoin="round"/>
<path d="M33.3818 20.8483C33.9547 20.1402 34.8307 19.6875 35.8125 19.6875C37.5384 19.6875 38.9375 21.0866 38.9375 22.8125C38.9375 23.5798 38.6609 24.2827 38.2402 24.7794L30.6016 34.957L30.6936 34.8433C28.9774 37.0316 26.3091 38.4375 23.3125 38.4375H5.1875C3.46164 38.4375 2.0625 37.0384 2.0625 35.3125V32.1875C2.0625 30.4616 3.46164 29.0625 5.1875 29.0625H10.8125C13.0624 27.0501 15.9752 25.9375 18.9938 25.9375H23.3125C25.0384 25.9375 26.4375 27.3366 26.4375 29.0625C26.4375 30.7884 25.0384 32.1875 23.3125 32.1875H17.0625" stroke="#FF640B" style="stroke:#FF640B;stroke:color(display-p3 1.0000 0.3922 0.0431);stroke-opacity:1;" stroke-width="3.125" stroke-miterlimit="10" stroke-linecap="round" stroke-linejoin="round"/>
<path d="M31.1143 23.862L33.2418 21.0273" stroke="#FF640B" style="stroke:#FF640B;stroke:color(display-p3 1.0000 0.3922 0.0431);stroke-opacity:1;" stroke-width="3.125" stroke-miterlimit="10" stroke-linecap="round" stroke-linejoin="round"/>
<path d="M38.2406 24.7793L30.6021 34.9569" stroke="#FF640B" style="stroke:#FF640B;stroke:color(display-p3 1.0000 0.3922 0.0431);stroke-opacity:1;" stroke-width="3.125" stroke-miterlimit="10" stroke-linecap="round" stroke-linejoin="round"/>
<path d="M20.5 4.6875V1.5625" stroke="#FFBA93" style="stroke:#FFBA93;stroke:color(display-p3 1.0000 0.7300 0.5750);stroke-opacity:1;" stroke-width="3.125" stroke-miterlimit="10" stroke-linecap="round" stroke-linejoin="round"/>
</svg>
